<?xml version="1.0" encoding="UTF-8"?>
<svg version="1.1" xmlns="http://www.w3.org/2000/svg" width="256" height="197">
<path d="M0 0 C84.48 0 168.96 0 256 0 C256 65.01 256 130.02 256 197 C171.52 197 87.04 197 0 197 C0 131.99 0 66.98 0 0 Z " fill="#FDFDFD" transform="translate(0,0)"/>
<path d="M0 0 C2.25 -0.3125 2.25 -0.3125 5 0 C7.65192512 2.22188321 8.87900431 3.85150125 9.24609375 7.3359375 C9.2496204 9.57183586 9.17478907 11.77143936 9 14 C9.86625 14.12375 10.7325 14.2475 11.625 14.375 C15 15 15 15 17.9375 16.4375 C18.948125 16.623125 19.95875 16.80875 21 17 C22.94862684 15.59486772 24.49067862 14.07289517 26.09375 12.28515625 C28 11 28 11 30.89453125 11.04296875 C34.54252401 12.16719293 36.41060234 13.64961832 39.1875 16.25 C40.02667969 17.01828125 40.86585938 17.7865625 41.73046875 18.578125 C45.11874524 22.19384174 47.02587158 24.52532013 46.9375 29.5625 C45.90771245 33.33838769 44.67964653 34.32035347 42 37 C42.14744404 39.87515881 42.98507241 41.96312007 44.0625 44.625 C45 47 45 47 45 50 C45.59167969 49.95359375 46.18335938 49.9071875 46.79296875 49.859375 C47.97826172 49.80523437 47.97826172 49.80523437 49.1875 49.75 C49.96480469 49.70359375 50.74210937 49.6571875 51.54296875 49.609375 C55.17302996 50.18649125 56.59153232 51.21124795 59 54 C59.66331368 57.18542616 59.56210123 60.26036813 59.4375 63.5 C59.42879883 64.78197266 59.42879883 64.78197266 59.41992188 66.08984375 C59.33843812 70.26833094 59.24311666 73.36170753 57 77 C54.6453749 78.17731255 53.23717895 78 50.625 78 C48.19872218 78.13360945 48.19872218 78.13360945 46 79 C43.8377412 81.74740615 42.67850781 84.5787106 42 88 C42.40856788 91.07265436 42.96695102 91.9619436 45.0625 94.375 C47.47320491 97.64111632 47.47886813 99.01107785 47 103 C42.94939049 109.06691292 36.87581159 115.90294239 29.5 117.5625 C27 117 27 117 24 114.4375 C21.32862363 111.72722412 21.32862363 111.72722412 18.5625 112.0625 C17.716875 112.371875 16.87125 112.68125 16 113 C14.741875 113.350625 13.48375 113.70125 12.1875 114.0625 C11.135625 114.371875 10.08375 114.68125 9 115 C9.05220703 115.90492188 9.05220703 115.90492188 9.10546875 116.828125 C9.32727273 123.37662338 9.32727273 123.37662338 7.6875 126.5 C3.87977022 129.88464869 -1.07059375 129.29098018 -5.875 129.375 C-6.67808594 129.41238281 -7.48117188 129.44976562 -8.30859375 129.48828125 C-12.61685623 129.55215994 -14.46655763 129.38864111 -18.05078125 126.77734375 C-20.11341739 123.83839727 -20.5743637 122.69647362 -20.3125 119.1875 C-20.26738281 118.39730469 -20.22226563 117.60710937 -20.17578125 116.79296875 C-20.08876953 115.90544922 -20.08876953 115.90544922 -20 115 C-21.11375 114.814375 -21.11375 114.814375 -22.25 114.625 C-25 114 -25 114 -27 112.875 C-29.78058119 111.65849573 -31.14684611 112.02575233 -34 113 C-34.78375 113.70125 -35.5675 114.4025 -36.375 115.125 C-39 117 -39 117 -42.25 117.25 C-48.83489598 115.05503467 -53.91727894 110.1499155 -57.625 104.3125 C-59 101 -59 101 -59.0625 98.375 C-57.64407731 95.20440811 -55.56382903 93.30087221 -53 91 C-53.20496094 90.38511719 -53.40992188 89.77023438 -53.62109375 89.13671875 C-55.31054688 84.06835938 -55.31054688 84.06835938 -57 79 C-57.67546875 78.99742187 -58.3509375 78.99484375 -59.046875 78.9921875 C-66.37028112 78.6746988 -66.37028112 78.6746988 -69.625 75.1875 C-71 72 -71 72 -71 68 C-69.35 68 -67.7 68 -66 68 C-65.34 69.65 -64.68 71.3 -64 73 C-63.31292969 73.01417969 -62.62585938 73.02835937 -61.91796875 73.04296875 C-54.53062377 73.43400132 -54.53062377 73.43400132 -52.125 76 C-51.75375 76.99 -51.3825 77.98 -51 79 C-50.64164063 79.69996094 -50.28328125 80.39992188 -49.9140625 81.12109375 C-48.11670181 84.6977209 -47 87.26879524 -47 91.3125 C-48 94 -48 94 -50.125 96.0625 C-52.28251495 97.84256432 -52.28251495 97.84256432 -52 100.4375 C-50.24603748 104.93202897 -47.22655515 108.62256273 -43 111 C-39.95487586 110.90177019 -38.95019354 109.9542319 -36.6875 107.875 C-34 106 -34 106 -30.8125 106 C-18.86666667 109.13333333 -18.86666667 109.13333333 -15 113 C-14.42269825 116.32220821 -14.25900988 119.63287151 -14 123 C-8.39 123 -2.78 123 3 123 C3.103125 121.411875 3.20625 119.82375 3.3125 118.1875 C3.61542596 113.5224402 3.61542596 113.5224402 5.2421875 111.3125 C9.58351633 108.07097447 14.96025383 106.35303299 20.25 105.4375 C24.22663618 106.25090286 26.07877051 108.21787668 29 111 C34.1826229 109.58655739 37.85955684 106.25479396 41 102 C41.42276216 99.27970785 41.42276216 99.27970785 40 97 C39.319375 96.360625 38.63875 95.72125 37.9375 95.0625 C36 93 36 93 35.69921875 90.26171875 C36.04647802 86.49598509 37.12188687 84.08846424 38.875 80.75 C39.40867187 79.71359375 39.94234375 78.6771875 40.4921875 77.609375 C42 75 42 75 44 73 C46.3828125 72.8046875 46.3828125 72.8046875 49.125 72.875 C50.03507812 72.89304687 50.94515625 72.91109375 51.8828125 72.9296875 C52.58148438 72.95289062 53.28015625 72.97609375 54 73 C54.02691685 70.54159395 54.04679802 68.08348118 54.0625 65.625 C54.07506836 64.57699219 54.07506836 64.57699219 54.08789062 63.5078125 C54.1835442 59.62704624 54.1835442 59.62704624 53 56 C50.97304618 55.60806489 50.97304618 55.60806489 48.625 55.5 C45.10348536 55.27058537 44.07060704 55.04707136 41 53 C38.35766671 48.21621528 35.38817022 42.60316378 35.9375 37 C37.10557391 33.70190895 38.57238765 32.42761235 41 30 C40.859826 26.63021697 40.23664031 25.25632306 37.93359375 22.76171875 C37.10988281 22.07722656 36.28617187 21.39273438 35.4375 20.6875 C34.61121094 19.99011719 33.78492188 19.29273437 32.93359375 18.57421875 C32.29550781 18.05472656 31.65742188 17.53523438 31 17 C28.4193304 18.2057674 26.7185108 19.25261851 24.5625 21.1875 C22 23 22 23 19.73046875 22.765625 C16.630176 21.89630114 13.72408419 20.79681819 10.75 19.5625 C9.69296875 19.13066406 8.6359375 18.69882813 7.546875 18.25390625 C5 17 5 17 4 15 C3.76825521 12.69971838 3.61890517 10.40119953 3.4765625 8.09375 C3.16441035 5.6125791 3.16441035 5.6125791 0 4 C0 2.68 0 1.36 0 0 Z " fill="#0A0A0A" transform="translate(186,54)"/>
<path d="M0 0 C2.97 0 5.94 0 9 0 C14.96125188 11.40496743 20.02620956 23.13694093 25 35 C27.02925417 31.17818538 27.95395508 27.32644674 28.875 23.125 C30.64110573 15.32526249 32.71593985 7.66618062 35 0 C38.3 0 41.6 0 45 0 C45.93794783 2.81384348 46.2514996 4.99501103 46.48071289 7.93041992 C46.56072037 8.93123093 46.64072784 9.93204193 46.72315979 10.96318054 C46.80549362 12.04138565 46.88782745 13.11959076 46.97265625 14.23046875 C47.06002548 15.33602615 47.14739471 16.44158356 47.2374115 17.5806427 C47.5159814 21.11599429 47.78929993 24.65172979 48.0625 28.1875 C48.25030564 30.5827094 48.4384524 32.97789208 48.62695312 35.37304688 C49.08859584 41.24839346 49.5459263 47.12406387 50 53 C47.36 53 44.72 53 42 53 C40.58735315 39.33984207 39.56007609 25.72186429 39 12 C38.75878418 12.99628418 38.75878418 12.99628418 38.51269531 14.01269531 C32.59041149 38.36924918 32.59041149 38.36924918 29 48 C27.35 48 25.7 48 24 48 C18.06762281 36.5612408 12.87426516 24.92639349 8 13 C8.09087891 13.89195068 8.18175781 14.78390137 8.27539062 15.70288086 C8.61441953 19.05166059 8.94939354 22.40079696 9.28173828 25.75024414 C9.42565412 27.19246118 9.57112651 28.63452386 9.71826172 30.07641602 C10.49842308 37.73208105 11.20667545 45.29272793 11 53 C8.69 53 6.38 53 4 53 C3.42348102 47.22062718 2.85409855 41.4406095 2.29101562 35.65991211 C2.09891496 33.69781013 1.90494271 31.73589038 1.70898438 29.77416992 C-0.29285134 9.70985225 -0.29285134 9.70985225 0 0 Z " fill="#030303" transform="translate(60,59)"/>
<path d="M0 0 C0.66 0.66 1.32 1.32 2 2 C1.64644564 4.26274788 1.02455574 5.95088852 0 8 C-4.76033058 6.14876033 -4.76033058 6.14876033 -6.8125 4.875 C-10.29872651 3.4805094 -13.25337142 3.76211882 -17 4 C-17.99 4.66 -18.98 5.32 -20 6 C-20.75045506 9.41456334 -20.75045506 9.41456334 -20 13 C-15.09973223 16.90052226 -9.53797326 19.00927648 -3.74609375 21.26757812 C1.44546449 23.4119174 4.42174787 25.84349574 7 31 C7.59471531 35.5394093 7.97706879 40.02492524 5.90625 44.2109375 C2.01942151 49.11082235 -1.91116731 50.51940959 -8.09375 51.24609375 C-15.95513562 51.70282918 -22.90359247 48.86875567 -29 44 C-28.1875 41.5625 -28.1875 41.5625 -27 39 C-24 38 -24 38 -21.80078125 38.99609375 C-20.56908203 39.70958984 -20.56908203 39.70958984 -19.3125 40.4375 C-14.44904417 42.97927691 -11.44578538 43.84503566 -6 43 C-3.28892287 41.62283334 -3.28892287 41.62283334 -2 39 C-1.34846241 35.4674714 -1.34846241 35.4674714 -3 32 C-6.08346659 29.79113987 -9.50974278 28.45121221 -13 27 C-26.2069476 21.3118592 -26.2069476 21.3118592 -29.35546875 15.14453125 C-30.53873839 11.20747046 -30.29737812 7.87779868 -29 4 C-27.11709363 0.50955302 -24.82912222 -1.58543889 -21.25 -3.375 C-13.20235082 -4.92262484 -7.16669059 -4.15152901 0 0 Z " fill="#FE0707" transform="translate(171,62)"/>
<path d="M0 0 C9.51680371 1.98180728 18.07128785 6.6753544 24 14.5625 C29.64360135 24.26243981 31.76527068 34.05097459 28.875 45 C25.47576404 55.19770788 18.51106211 63.14674849 9.1875 68.4375 C0.8004758 71.77192455 -10.22111437 71.5093857 -18.72265625 68.82421875 C-23.93897994 66.32271036 -28.28831768 63.49900887 -32 59 C-32.845625 58.154375 -33.69125 57.30875 -34.5625 56.4375 C-38.24615247 51.99613421 -41 44.7819349 -41 39 C-39.35 39 -37.7 39 -36 39 C-35.81566406 39.67804688 -35.63132813 40.35609375 -35.44140625 41.0546875 C-32.77093441 49.62393493 -28.36498375 56.43591589 -20.77734375 61.4765625 C-13.38277676 65.31897301 -5.46980897 66.33331614 2.66015625 64.3515625 C10.98527957 61.34062145 16.89595735 56.6714236 20.9375 48.75 C24.32304101 41.35919184 25.33496475 34.20200937 23.28125 26.19921875 C19.7372969 16.7820208 14.00880746 11.32141233 5 7 C2.3050537 6.31912171 2.3050537 6.31912171 0 6 C0 4.02 0 2.04 0 0 Z " fill="#090909" transform="translate(186,83)"/>
<path d="M0 0 C2.64 0 5.28 0 8 0 C8.43348768 4.78258346 8.86045021 9.56569167 9.28173828 14.34936523 C9.42551466 15.97191542 9.57098043 17.59431694 9.71826172 19.21655273 C9.93136033 21.56716088 10.13809226 23.91826173 10.34375 26.26953125 C10.40937134 26.97833939 10.47499268 27.68714752 10.54260254 28.41743469 C11.05110107 34.34288349 11 39.98291528 11 46 C18.59 46 26.18 46 34 46 C34.495 49.465 34.495 49.465 35 53 C24.77 53 14.54 53 4 53 C3.42537367 47.22038785 2.85410091 41.44063378 2.29101562 35.65991211 C2.09891496 33.69781013 1.90494271 31.73589038 1.70898438 29.77416992 C-0.37857926 8.85060478 -0.37857926 8.85060478 0 0 Z " fill="#010101" transform="translate(20,59)"/>
<path d="M0 0 C2.64 0 5.28 0 8 0 C8.57396461 6.42255558 9.1431165 12.84552485 9.70898438 19.26879883 C9.90189608 21.45216441 10.09589396 23.63543432 10.29101562 25.81860352 C10.57189565 28.96345663 10.8488192 32.10863739 11.125 35.25390625 C11.21249512 36.2239711 11.29999023 37.19403595 11.39013672 38.1934967 C11.82156109 43.15202867 12.09623556 48.02281732 12 53 C9.36 53 6.72 53 4 53 C3.42348102 47.22062718 2.85409855 41.4406095 2.29101562 35.65991211 C2.09891496 33.69781013 1.90494271 31.73589038 1.70898438 29.77416992 C-0.37857926 8.85060478 -0.37857926 8.85060478 0 0 Z " fill="#FE0101" transform="translate(119,59)"/>
</svg>
